<mxfile host="Electron" agent="Mozilla/5.0 (Windows NT 10.0; Win64; x64) AppleWebKit/537.36 (KHTML, like Gecko) draw.io/24.7.8 Chrome/128.0.6613.36 Electron/32.0.1 Safari/537.36" version="24.7.8">
  <diagram name="Страница — 1" id="ZWZOfKbPBvwn-qi-9Pri">
    <mxGraphModel dx="1434" dy="844" grid="1" gridSize="10" guides="1" tooltips="1" connect="1" arrows="1" fold="1" page="1" pageScale="1" pageWidth="827" pageHeight="1169" math="0" shadow="0">
      <root>
        <mxCell id="0" />
        <mxCell id="1" parent="0" />
        <mxCell id="bCf5sGynSnwTklrirDn9-61" value="" style="rounded=0;whiteSpace=wrap;html=1;fillColor=#dddedf;strokeColor=#23445d;" parent="1" vertex="1">
          <mxGeometry y="130" width="1150" height="550" as="geometry" />
        </mxCell>
        <mxCell id="bCf5sGynSnwTklrirDn9-65" value="" style="ellipse;whiteSpace=wrap;html=1;aspect=fixed;fillColor=#cccccc;strokeColor=#23445d;" parent="1" vertex="1">
          <mxGeometry x="605" y="145" width="510" height="510" as="geometry" />
        </mxCell>
        <mxCell id="bCf5sGynSnwTklrirDn9-63" value="" style="whiteSpace=wrap;html=1;aspect=fixed;fillColor=#cccccc;strokeColor=#23445d;" parent="1" vertex="1">
          <mxGeometry x="35" y="145" width="510" height="510" as="geometry" />
        </mxCell>
        <mxCell id="bCf5sGynSnwTklrirDn9-43" style="edgeStyle=orthogonalEdgeStyle;rounded=0;orthogonalLoop=1;jettySize=auto;html=1;" parent="1" source="bCf5sGynSnwTklrirDn9-2" edge="1">
          <mxGeometry relative="1" as="geometry">
            <mxPoint x="570" y="400" as="targetPoint" />
          </mxGeometry>
        </mxCell>
        <mxCell id="bCf5sGynSnwTklrirDn9-2" value="" style="ellipse;whiteSpace=wrap;html=1;aspect=fixed;" parent="1" vertex="1">
          <mxGeometry x="620" y="160" width="480" height="480" as="geometry" />
        </mxCell>
        <mxCell id="bCf5sGynSnwTklrirDn9-42" style="edgeStyle=orthogonalEdgeStyle;rounded=0;orthogonalLoop=1;jettySize=auto;html=1;" parent="1" source="bCf5sGynSnwTklrirDn9-1" edge="1">
          <mxGeometry relative="1" as="geometry">
            <mxPoint x="570" y="400" as="targetPoint" />
          </mxGeometry>
        </mxCell>
        <mxCell id="bCf5sGynSnwTklrirDn9-1" value="" style="whiteSpace=wrap;html=1;aspect=fixed;" parent="1" vertex="1">
          <mxGeometry x="50" y="160" width="480" height="480" as="geometry" />
        </mxCell>
        <mxCell id="bCf5sGynSnwTklrirDn9-8" value="" style="endArrow=none;html=1;rounded=0;entryX=0;entryY=1;entryDx=0;entryDy=0;" parent="1" source="bCf5sGynSnwTklrirDn9-11" target="bCf5sGynSnwTklrirDn9-1" edge="1">
          <mxGeometry width="50" height="50" relative="1" as="geometry">
            <mxPoint x="231" y="464" as="sourcePoint" />
            <mxPoint x="440" y="410" as="targetPoint" />
          </mxGeometry>
        </mxCell>
        <mxCell id="bCf5sGynSnwTklrirDn9-9" value="" style="endArrow=none;html=1;rounded=0;entryX=1;entryY=0.5;entryDx=0;entryDy=0;" parent="1" source="bCf5sGynSnwTklrirDn9-11" target="bCf5sGynSnwTklrirDn9-1" edge="1">
          <mxGeometry width="50" height="50" relative="1" as="geometry">
            <mxPoint x="227.97000000000003" y="461.98" as="sourcePoint" />
            <mxPoint x="440" y="410" as="targetPoint" />
          </mxGeometry>
        </mxCell>
        <mxCell id="bCf5sGynSnwTklrirDn9-10" value="User" style="sketch=0;outlineConnect=0;fontColor=#232F3E;gradientColor=none;strokeColor=#232F3E;fillColor=#ffffff;dashed=0;verticalLabelPosition=bottom;verticalAlign=top;align=center;html=1;fontSize=12;fontStyle=0;aspect=fixed;shape=mxgraph.aws4.resourceIcon;resIcon=mxgraph.aws4.user;" parent="1" vertex="1">
          <mxGeometry x="830" y="370" width="60" height="60" as="geometry" />
        </mxCell>
        <mxCell id="bCf5sGynSnwTklrirDn9-11" value="Client" style="sketch=0;outlineConnect=0;fontColor=#232F3E;gradientColor=none;strokeColor=#232F3E;fillColor=#ffffff;dashed=0;verticalLabelPosition=bottom;verticalAlign=top;align=center;html=1;fontSize=12;fontStyle=0;aspect=fixed;shape=mxgraph.aws4.resourceIcon;resIcon=mxgraph.aws4.client;" parent="1" vertex="1">
          <mxGeometry x="260" y="370" width="60" height="60" as="geometry" />
        </mxCell>
        <mxCell id="bCf5sGynSnwTklrirDn9-14" value="" style="endArrow=none;html=1;rounded=0;entryX=0;entryY=0.5;entryDx=0;entryDy=0;" parent="1" source="bCf5sGynSnwTklrirDn9-10" target="bCf5sGynSnwTklrirDn9-2" edge="1">
          <mxGeometry width="50" height="50" relative="1" as="geometry">
            <mxPoint x="390" y="460" as="sourcePoint" />
            <mxPoint x="440" y="410" as="targetPoint" />
          </mxGeometry>
        </mxCell>
        <mxCell id="bCf5sGynSnwTklrirDn9-18" value="" style="endArrow=none;html=1;rounded=0;entryX=1;entryY=0;entryDx=0;entryDy=0;" parent="1" source="bCf5sGynSnwTklrirDn9-10" target="bCf5sGynSnwTklrirDn9-2" edge="1">
          <mxGeometry width="50" height="50" relative="1" as="geometry">
            <mxPoint x="390" y="460" as="sourcePoint" />
            <mxPoint x="440" y="410" as="targetPoint" />
          </mxGeometry>
        </mxCell>
        <mxCell id="bCf5sGynSnwTklrirDn9-19" value="" style="endArrow=none;html=1;rounded=0;entryX=1;entryY=1;entryDx=0;entryDy=0;" parent="1" source="bCf5sGynSnwTklrirDn9-10" target="bCf5sGynSnwTklrirDn9-2" edge="1">
          <mxGeometry width="50" height="50" relative="1" as="geometry">
            <mxPoint x="390" y="460" as="sourcePoint" />
            <mxPoint x="440" y="410" as="targetPoint" />
          </mxGeometry>
        </mxCell>
        <mxCell id="bCf5sGynSnwTklrirDn9-20" value="&lt;font style=&quot;font-size: 22px;&quot; color=&quot;#a8a8a8&quot;&gt;Gain&lt;/font&gt;" style="text;html=1;align=center;verticalAlign=middle;whiteSpace=wrap;rounded=0;" parent="1" vertex="1">
          <mxGeometry x="768.5" y="360" width="57" height="30" as="geometry" />
        </mxCell>
        <mxCell id="bCf5sGynSnwTklrirDn9-21" value="&lt;font style=&quot;font-size: 22px;&quot; color=&quot;#a8a8a8&quot;&gt;Pain&lt;/font&gt;" style="text;html=1;align=center;verticalAlign=middle;whiteSpace=wrap;rounded=0;" parent="1" vertex="1">
          <mxGeometry x="767" y="410" width="60" height="30" as="geometry" />
        </mxCell>
        <mxCell id="bCf5sGynSnwTklrirDn9-22" value="&lt;font style=&quot;font-size: 22px;&quot; color=&quot;#a8a8a8&quot;&gt;Costomer&lt;br&gt;jobe&lt;/font&gt;" style="text;html=1;align=center;verticalAlign=middle;whiteSpace=wrap;rounded=0;" parent="1" vertex="1">
          <mxGeometry x="920" y="380" width="60" height="30" as="geometry" />
        </mxCell>
        <mxCell id="bCf5sGynSnwTklrirDn9-23" value="&lt;font style=&quot;font-size: 22px;&quot; color=&quot;#a8a8a8&quot;&gt;Gain creators&lt;/font&gt;" style="text;html=1;align=center;verticalAlign=middle;whiteSpace=wrap;rounded=0;" parent="1" vertex="1">
          <mxGeometry x="330" y="350" width="60" height="30" as="geometry" />
        </mxCell>
        <mxCell id="bCf5sGynSnwTklrirDn9-24" value="&lt;font style=&quot;font-size: 22px;&quot; color=&quot;#a8a8a8&quot;&gt;Pain&lt;br&gt;relievers&lt;/font&gt;" style="text;html=1;align=center;verticalAlign=middle;whiteSpace=wrap;rounded=0;" parent="1" vertex="1">
          <mxGeometry x="330" y="420" width="60" height="30" as="geometry" />
        </mxCell>
        <mxCell id="bCf5sGynSnwTklrirDn9-25" value="&lt;font color=&quot;#a8a8a8&quot;&gt;&lt;span style=&quot;font-size: 22px;&quot;&gt;Products&lt;br&gt;&amp;amp;&lt;br&gt;service&lt;/span&gt;&lt;/font&gt;" style="text;html=1;align=center;verticalAlign=middle;whiteSpace=wrap;rounded=0;" parent="1" vertex="1">
          <mxGeometry x="180" y="390" width="60" height="30" as="geometry" />
        </mxCell>
        <mxCell id="bCf5sGynSnwTklrirDn9-27" value="&lt;span style=&quot;font-size: 9px;&quot;&gt;Automatic backup and restore applications&lt;/span&gt;" style="whiteSpace=wrap;html=1;aspect=fixed;strokeWidth=0;fillColor=#DDEBFF;strokeColor=#6c8ebf;gradientColor=none;shadow=0;" parent="1" vertex="1">
          <mxGeometry x="950" y="420" width="70" height="70" as="geometry" />
        </mxCell>
        <mxCell id="bCf5sGynSnwTklrirDn9-28" value="&lt;span style=&quot;font-size: 9px; font-weight: 400;&quot;&gt;Manage custom backup policies&lt;/span&gt;" style="whiteSpace=wrap;html=1;aspect=fixed;strokeWidth=0;fillColor=#dae8fc;strokeColor=#6c8ebf;fontStyle=1" parent="1" vertex="1">
          <mxGeometry x="1020" y="350" width="70" height="70" as="geometry" />
        </mxCell>
        <mxCell id="bCf5sGynSnwTklrirDn9-29" value="&lt;span style=&quot;font-size: 9px;&quot;&gt;Support different versions of K8s&lt;/span&gt;" style="whiteSpace=wrap;html=1;aspect=fixed;strokeWidth=0;fillColor=#dae8fc;strokeColor=#6c8ebf;" parent="1" vertex="1">
          <mxGeometry x="990" y="270" width="70" height="70" as="geometry" />
        </mxCell>
        <mxCell id="bCf5sGynSnwTklrirDn9-30" value="&lt;span style=&quot;font-size: 9px;&quot;&gt;Interface and API for backup management&lt;/span&gt;" style="whiteSpace=wrap;html=1;aspect=fixed;strokeWidth=0;fillColor=#dae8fc;strokeColor=#6c8ebf;" parent="1" vertex="1">
          <mxGeometry x="1030" y="430" width="70" height="70" as="geometry" />
        </mxCell>
        <mxCell id="bCf5sGynSnwTklrirDn9-34" value="&lt;b style=&quot;font-size: x-small;&quot;&gt;MEDIUM -&amp;nbsp;&lt;/b&gt;&lt;font size=&quot;1&quot;&gt;Difficulties in supporting different versions of K8s&lt;/font&gt;" style="whiteSpace=wrap;html=1;aspect=fixed;strokeWidth=0;fillColor=#fad7ac;strokeColor=#b46504;shadow=0;" parent="1" vertex="1">
          <mxGeometry x="740" y="470" width="80" height="80" as="geometry" />
        </mxCell>
        <mxCell id="bCf5sGynSnwTklrirDn9-35" value="&lt;font size=&quot;1&quot;&gt;&lt;b&gt;CRITICAL&lt;/b&gt; - Long recovery time&lt;/font&gt;" style="whiteSpace=wrap;html=1;aspect=fixed;strokeWidth=0;fillColor=#fad7ac;strokeColor=#b46504;shadow=0;" parent="1" vertex="1">
          <mxGeometry x="850" y="540" width="70" height="70" as="geometry" />
        </mxCell>
        <mxCell id="bCf5sGynSnwTklrirDn9-36" value="&lt;font size=&quot;1&quot;&gt;&lt;b&gt;HIGH &lt;/b&gt;- Storage overload&lt;/font&gt;" style="whiteSpace=wrap;html=1;aspect=fixed;strokeWidth=0;fillColor=#fad7ac;strokeColor=#b46504;shadow=0;" parent="1" vertex="1">
          <mxGeometry x="640" y="410" width="70" height="70" as="geometry" />
        </mxCell>
        <mxCell id="bCf5sGynSnwTklrirDn9-38" value="&lt;font size=&quot;1&quot;&gt;&lt;b&gt;HIGH &lt;/b&gt;- Fast and reliable data recovery&lt;/font&gt;" style="whiteSpace=wrap;html=1;aspect=fixed;strokeWidth=0;fillColor=#d5e8d4;strokeColor=#0e8088;shadow=0;" parent="1" vertex="1">
          <mxGeometry x="890" y="190" width="70" height="70" as="geometry" />
        </mxCell>
        <mxCell id="bCf5sGynSnwTklrirDn9-39" value="&lt;font size=&quot;1&quot;&gt;Data security&lt;/font&gt;" style="whiteSpace=wrap;html=1;aspect=fixed;strokeWidth=0;fillColor=#d5e8d4;strokeColor=#0e8088;shadow=0;" parent="1" vertex="1">
          <mxGeometry x="670" y="290" width="70" height="70" as="geometry" />
        </mxCell>
        <mxCell id="bCf5sGynSnwTklrirDn9-40" value="&lt;font size=&quot;1&quot;&gt;&lt;b&gt;MEDIUM &lt;/b&gt;-Flexible backup management&lt;/font&gt;" style="whiteSpace=wrap;html=1;aspect=fixed;strokeWidth=0;fillColor=#d5e8d4;strokeColor=#0e8088;shadow=0;" parent="1" vertex="1">
          <mxGeometry x="820" y="270" width="70" height="70" as="geometry" />
        </mxCell>
        <mxCell id="bCf5sGynSnwTklrirDn9-41" value="&lt;div&gt;&lt;font size=&quot;1&quot;&gt;&lt;b&gt;IMPORTANT -&amp;nbsp;&lt;/b&gt;&lt;/font&gt;&lt;span style=&quot;font-size: x-small; background-color: initial;&quot;&gt;High availability&lt;/span&gt;&lt;/div&gt;" style="whiteSpace=wrap;html=1;aspect=fixed;strokeWidth=0;fillColor=#d5e8d4;strokeColor=#0e8088;shadow=0;" parent="1" vertex="1">
          <mxGeometry x="740" y="200" width="70" height="70" as="geometry" />
        </mxCell>
        <mxCell id="bCf5sGynSnwTklrirDn9-45" value="&lt;font size=&quot;1&quot;&gt;Automatic recovery applications&lt;/font&gt;" style="whiteSpace=wrap;html=1;aspect=fixed;strokeWidth=0;fillColor=#dae8fc;strokeColor=#6c8ebf;shadow=0;" parent="1" vertex="1">
          <mxGeometry x="120" y="290" width="70" height="70" as="geometry" />
        </mxCell>
        <mxCell id="bCf5sGynSnwTklrirDn9-46" value="&lt;font size=&quot;1&quot;&gt;External storage&lt;/font&gt;" style="whiteSpace=wrap;html=1;aspect=fixed;strokeWidth=0;fillColor=#dae8fc;strokeColor=#6c8ebf;shadow=0;" parent="1" vertex="1">
          <mxGeometry x="60" y="360" width="70" height="70" as="geometry" />
        </mxCell>
        <mxCell id="bCf5sGynSnwTklrirDn9-47" value="&lt;font size=&quot;1&quot;&gt;UI interface&lt;/font&gt;" style="whiteSpace=wrap;html=1;aspect=fixed;strokeWidth=0;fillColor=#dae8fc;strokeColor=#6c8ebf;shadow=0;" parent="1" vertex="1">
          <mxGeometry x="105" y="440" width="70" height="70" as="geometry" />
        </mxCell>
        <mxCell id="bCf5sGynSnwTklrirDn9-48" value="&lt;font size=&quot;1&quot;&gt;Support for different versions of K8s&lt;/font&gt;" style="whiteSpace=wrap;html=1;aspect=fixed;strokeWidth=0;fillColor=#ffe6cc;strokeColor=#d79b00;shadow=0;" parent="1" vertex="1">
          <mxGeometry x="400" y="550" width="70" height="70" as="geometry" />
        </mxCell>
        <mxCell id="bCf5sGynSnwTklrirDn9-50" value="&lt;font size=&quot;1&quot;&gt;Stable operation without downtime&lt;/font&gt;" style="whiteSpace=wrap;html=1;aspect=fixed;strokeWidth=0;fillColor=#d5e8d4;strokeColor=#82b366;shadow=0;" parent="1" vertex="1">
          <mxGeometry x="450" y="310" width="70" height="70" as="geometry" />
        </mxCell>
        <mxCell id="bCf5sGynSnwTklrirDn9-51" value="&lt;font size=&quot;1&quot;&gt;Reliable data security&lt;/font&gt;" style="whiteSpace=wrap;html=1;aspect=fixed;strokeWidth=0;fillColor=#d5e8d4;strokeColor=#82b366;shadow=0;" parent="1" vertex="1">
          <mxGeometry x="400" y="220" width="70" height="70" as="geometry" />
        </mxCell>
        <mxCell id="bCf5sGynSnwTklrirDn9-52" value="&lt;font size=&quot;1&quot;&gt;Flexibility in choosing backup policies&lt;/font&gt;" style="whiteSpace=wrap;html=1;aspect=fixed;strokeWidth=0;fillColor=#d5e8d4;strokeColor=#82b366;shadow=0;" parent="1" vertex="1">
          <mxGeometry x="280" y="210" width="70" height="70" as="geometry" />
        </mxCell>
        <mxCell id="bCf5sGynSnwTklrirDn9-53" value="&lt;font size=&quot;1&quot;&gt;Time savings through automation&lt;/font&gt;" style="whiteSpace=wrap;html=1;aspect=fixed;strokeWidth=0;fillColor=#d5e8d4;strokeColor=#82b366;shadow=0;" parent="1" vertex="1">
          <mxGeometry x="175" y="180" width="70" height="70" as="geometry" />
        </mxCell>
        <mxCell id="bCf5sGynSnwTklrirDn9-54" value="&lt;font size=&quot;1&quot;&gt;Quickly restore application state&lt;/font&gt;" style="whiteSpace=wrap;html=1;aspect=fixed;strokeWidth=0;fillColor=#ffe6cc;strokeColor=#d79b00;shadow=0;" parent="1" vertex="1">
          <mxGeometry x="430" y="440" width="70" height="70" as="geometry" />
        </mxCell>
        <mxCell id="bCf5sGynSnwTklrirDn9-55" value="&lt;font size=&quot;1&quot;&gt;Data protection&lt;/font&gt;" style="whiteSpace=wrap;html=1;aspect=fixed;strokeWidth=0;fillColor=#ffe6cc;strokeColor=#d79b00;shadow=0;" parent="1" vertex="1">
          <mxGeometry x="200" y="550" width="70" height="70" as="geometry" />
        </mxCell>
        <mxCell id="bCf5sGynSnwTklrirDn9-56" value="&lt;font size=&quot;1&quot;&gt;Storage capacity monitoring&lt;/font&gt;" style="whiteSpace=wrap;html=1;aspect=fixed;strokeWidth=0;fillColor=#ffe6cc;strokeColor=#d79b00;shadow=0;" parent="1" vertex="1">
          <mxGeometry x="310" y="510" width="70" height="70" as="geometry" />
        </mxCell>
        <mxCell id="bCf5sGynSnwTklrirDn9-58" value="" style="rounded=0;whiteSpace=wrap;html=1;strokeColor=none;" parent="1" vertex="1">
          <mxGeometry x="270" y="435" width="40" height="20" as="geometry" />
        </mxCell>
        <mxCell id="bCf5sGynSnwTklrirDn9-59" value="" style="rounded=0;whiteSpace=wrap;html=1;strokeColor=none;" parent="1" vertex="1">
          <mxGeometry x="840" y="435" width="40" height="20" as="geometry" />
        </mxCell>
        <mxCell id="bCf5sGynSnwTklrirDn9-64" value="" style="endArrow=none;html=1;rounded=0;entryX=0;entryY=0;entryDx=0;entryDy=0;" parent="1" source="bCf5sGynSnwTklrirDn9-11" target="bCf5sGynSnwTklrirDn9-1" edge="1">
          <mxGeometry width="50" height="50" relative="1" as="geometry">
            <mxPoint x="260" y="370" as="sourcePoint" />
            <mxPoint x="50" y="160" as="targetPoint" />
          </mxGeometry>
        </mxCell>
        <mxCell id="0vXHC34jklbjfZh2r0E--2" value="&lt;span style=&quot;font-size: x-small;&quot;&gt;Automatic backup service&lt;/span&gt;" style="whiteSpace=wrap;html=1;aspect=fixed;strokeWidth=0;fillColor=#dae8fc;strokeColor=#6c8ebf;shadow=0;" parent="1" vertex="1">
          <mxGeometry x="50" y="220" width="70" height="70" as="geometry" />
        </mxCell>
        <mxCell id="0vXHC34jklbjfZh2r0E--3" value="&lt;font size=&quot;1&quot;&gt;API interface&lt;/font&gt;" style="whiteSpace=wrap;html=1;aspect=fixed;strokeWidth=0;fillColor=#dae8fc;strokeColor=#6c8ebf;shadow=0;" parent="1" vertex="1">
          <mxGeometry x="50" y="510" width="70" height="70" as="geometry" />
        </mxCell>
      </root>
    </mxGraphModel>
  </diagram>
</mxfile>
